<svg width="2246" height="2246" xmlns="http://www.w3.org/2000/svg" xmlns:xlink="http://www.w3.org/1999/xlink" overflow="hidden"><defs><clipPath id="clip0"><rect x="0" y="0" width="2246" height="2246"/></clipPath><clipPath id="clip1"><rect x="355" y="355" width="1536" height="1536"/></clipPath><clipPath id="clip2"><rect x="355" y="355" width="1536" height="1536"/></clipPath><clipPath id="clip3"><rect x="355" y="355" width="1536" height="1536"/></clipPath></defs><g clip-path="url(#clip0)"><rect x="0" y="0" width="2246" height="2246" fill="#FFFFFF"/><path d="M163 1123C163 592.807 592.807 163 1123 163 1653.19 163 2083 592.807 2083 1123 2083 1653.19 1653.19 2083 1123 2083 592.807 2083 163 1653.19 163 1123Z" stroke="#32A350" stroke-width="15.9976" stroke-miterlimit="8" fill="none" fill-rule="evenodd"/><g clip-path="url(#clip1)"><g clip-path="url(#clip2)"><g clip-path="url(#clip3)"><path d="M1123 1779C1073.51 1779 1047.8 1750.79 1024.78 1718.6 1006.9 1693.62 995.368 1679.35 966.44 1676.7 930.808 1673.5 897.064 1692.87 857.992 1715.35 793.176 1752.68 712.504 1799.1 597.304 1744.73 581.434 1736.95 574.874 1717.78 582.651 1701.91 590.266 1686.37 608.858 1679.7 624.616 1686.86 709.576 1726.95 763.56 1695.86 826.056 1659.9 870.504 1634.3 916.408 1607.83 972.296 1612.97 1031.78 1618.42 1057.8 1654.79 1076.82 1681.35 1099.48 1713 1110.86 1728.89 1181.48 1700.55 1197.89 1693.99 1216.52 1701.97 1223.08 1718.38 1229.64 1734.79 1221.67 1753.41 1205.26 1759.98 1179.28 1771.44 1151.37 1777.9 1123 1779Z" fill="#32A350"/><path d="M743.8 1377.69C707.8 1435.86 631.08 1567.8 599.256 1682.63 599.133 1683.22 599.509 1683.8 600.098 1683.92 600.502 1684 600.92 1683.85 601.176 1683.53 629.546 1649.5 662.053 1619.15 697.944 1593.18L697.944 1593.18C698.392 1591.85 725.784 1513.8 806.952 1390.41 807.107 1390.17 807.39 1390.04 807.672 1390.09 836.795 1392.65 866.128 1388.93 893.688 1379.18 1005.96 1348.01 1087.29 1241.3 1095.29 1230.38 1095.61 1229.94 1095.29 1229.46 1094.71 1229.46 1051.38 1228.95 1008.71 1218.82 969.768 1199.8 968.781 1199.32 968.11 1198.36 967.992 1197.27 967.931 1196.83 967.976 1196.37 968.12 1195.94 968.587 1194.42 970.11 1193.47 971.688 1193.72L971.784 1193.72C1057.44 1207.3 1143.94 1174.91 1199.61 1108.41 1234.19 1066.84 1272.19 1028.23 1313.21 993 1364.68 948.792 1429.82 904.904 1490.01 859.528 1493.14 857.035 1493.66 852.477 1491.17 849.344 1490.08 847.974 1488.53 847.045 1486.81 846.728 1447.21 839.334 1409.56 823.824 1376.25 801.176 1375.47 800.65 1374.96 799.808 1374.86 798.872 1374.78 798.27 1374.88 797.658 1375.14 797.112 1375.83 795.667 1377.48 794.95 1379 795.432 1429.26 810.787 1482.72 812.357 1533.8 799.976 1563.87 792.552 1590.83 775.848 1610.87 752.232 1664.17 689.976 1686.07 623.048 1637.45 547.656 1604.3 496.248 1530.39 474.056 1434.6 485.112 1378.51 491.023 1330.48 527.922 1310.31 580.6 1303.43 599.054 1298.44 618.16 1295.42 637.624 1295.42 639.392 1293.98 640.824 1292.22 640.824 1290.45 640.824 1289.02 639.392 1289.02 637.624 1288.55 634.424 1288.15 631.224 1287.78 628.024 1284.23 596.226 1285.92 564.058 1292.79 532.808 1293.73 529.008 1291.42 525.165 1287.62 524.222 1286.24 523.88 1284.78 523.962 1283.45 524.456 1208.39 554.547 1137.43 593.995 1072.25 641.864 996.766 696.19 927.542 758.722 865.848 828.312 826.246 872.795 805.077 930.694 806.648 990.232 807.638 1015.2 811.854 1039.94 819.192 1063.83 819.795 1065.49 818.939 1067.33 817.278 1067.93 815.843 1068.45 814.24 1067.89 813.448 1066.58 792.976 1036.44 778.325 1002.73 770.248 967.192L768.936 966.984C730.728 1040.25 689.4 1155 682.872 1230.98 678.76 1279.18 692.264 1322.41 717.08 1345.96 717.35 1346.24 717.795 1346.25 718.075 1345.98 718.125 1345.93 718.166 1345.88 718.2 1345.82 778.184 1240.02 899.544 1059.85 985.96 973.304 1051.83 905.702 1125.35 846 1205.03 795.4 1216.25 788.325 1228.45 782.934 1241.24 779.4 1242.91 778.826 1244.73 779.714 1245.31 781.384 1245.8 782.806 1245.23 784.379 1243.94 785.16 1178.42 830.754 1117.09 882.091 1060.68 938.568 960.968 1038.38 821.768 1230.62 754.728 1358.2 751.224 1364.92 747.688 1371.3 743.8 1377.69Z" fill="#32A350"/></g></g></g></g></svg>