<svg width="2246" height="2246" xmlns="http://www.w3.org/2000/svg" xmlns:xlink="http://www.w3.org/1999/xlink" overflow="hidden"><defs><clipPath id="clip0"><rect x="0" y="0" width="2246" height="2246"/></clipPath><clipPath id="clip1"><rect x="643" y="391" width="960" height="961"/></clipPath><clipPath id="clip2"><rect x="643" y="391" width="960" height="961"/></clipPath><clipPath id="clip3"><rect x="643" y="391" width="960" height="961"/></clipPath></defs><g clip-path="url(#clip0)"><rect x="0" y="0" width="2246" height="2246" fill="#FFFFFF"/><path d="M547 871C547 552.884 804.884 295 1123 295 1441.12 295 1699 552.884 1699 871 1699 1189.12 1441.12 1447 1123 1447 804.884 1447 547 1189.12 547 871Z" stroke="#E34133" stroke-width="15.9976" stroke-miterlimit="8" fill="none" fill-rule="evenodd"/><text fill="#32A350" font-family="Calibri,Calibri_MSFontService,sans-serif" font-weight="700" font-size="267" transform="translate(541.33 1702)">Ashton<tspan fill="#4081EC" font-size="267" x="845.295" y="0">Fei</tspan><tspan fill="#F3B604" font-weight="400" font-size="133" x="78.225" y="207">automate</tspan><tspan fill="#7F7F7F" font-weight="400" font-size="133" x="634.503" y="207">daily life</tspan></text><g clip-path="url(#clip1)"><g clip-path="url(#clip2)"><g clip-path="url(#clip3)"><path d="M1123 1281C1092.07 1281 1076 1263.37 1061.61 1243.25 1050.44 1227.64 1043.23 1218.72 1025.15 1217.06 1002.88 1215.06 981.79 1227.17 957.37 1241.22 916.86 1264.55 866.44 1293.56 794.44 1259.58 784.521 1254.72 780.421 1242.74 785.282 1232.82 790.041 1223.11 801.661 1218.94 811.51 1223.41 864.61 1248.47 898.35 1229.04 937.41 1206.56 965.19 1190.56 993.88 1174.02 1028.81 1177.23 1065.99 1180.64 1082.25 1203.37 1094.14 1219.97 1108.3 1239.75 1115.41 1249.68 1159.55 1231.97 1169.81 1227.87 1181.45 1232.85 1185.55 1243.11 1189.65 1253.37 1184.67 1265.01 1174.41 1269.11 1158.18 1276.28 1140.73 1280.31 1123 1281Z" fill="#E34133"/><path d="M886 1030.18C863.5 1066.54 815.55 1149 795.66 1220.77 795.583 1221.14 795.818 1221.5 796.186 1221.58 796.439 1221.63 796.7 1221.53 796.86 1221.33 814.591 1200.06 834.908 1181.09 857.34 1164.86L857.34 1164.86C857.62 1164.03 874.74 1115.25 925.47 1038.13 925.567 1037.98 925.744 1037.9 925.92 1037.93 944.122 1039.53 962.455 1037.21 979.68 1031.11 1049.85 1011.63 1100.68 944.94 1105.68 938.11 1105.88 937.84 1105.68 937.54 1105.32 937.54 1078.24 937.219 1051.57 930.886 1027.23 919 1026.61 918.699 1026.19 918.102 1026.12 917.42 1026.08 917.141 1026.11 916.857 1026.2 916.59 1026.49 915.635 1027.44 915.041 1028.43 915.2L1028.49 915.2C1082.03 923.685 1136.08 903.441 1170.88 861.88 1192.49 835.897 1216.24 811.769 1241.88 789.75 1274.05 762.12 1314.76 734.69 1352.38 706.33 1354.34 704.772 1354.66 701.923 1353.1 699.965 1352.42 699.109 1351.46 698.528 1350.38 698.33 1325.63 693.709 1302.1 684.015 1281.28 669.86 1280.79 669.531 1280.47 669.005 1280.41 668.42 1280.36 668.044 1280.42 667.661 1280.59 667.32 1281.02 666.417 1282.05 665.969 1283 666.27 1314.41 675.867 1347.83 676.848 1379.75 669.11 1398.54 664.47 1415.4 654.03 1427.92 639.27 1461.23 600.36 1474.92 558.53 1444.53 511.41 1423.81 479.28 1377.62 465.41 1317.75 472.32 1282.69 476.014 1252.67 499.076 1240.07 532 1235.77 543.534 1232.65 555.475 1230.76 567.64 1230.76 568.745 1229.86 569.64 1228.76 569.64 1227.66 569.64 1226.76 568.745 1226.76 567.64 1226.47 565.64 1226.22 563.64 1225.99 561.64 1223.77 541.766 1224.82 521.661 1229.12 502.13 1229.71 499.755 1228.26 497.353 1225.89 496.764 1225.02 496.55 1224.11 496.601 1223.28 496.91 1176.37 515.717 1132.02 540.372 1091.28 570.29 1044.1 604.244 1000.84 643.326 962.28 686.82 937.529 714.622 924.298 750.809 925.28 788.02 925.899 803.627 928.534 819.089 933.12 834.02 933.497 835.058 932.962 836.206 931.924 836.583 931.027 836.909 930.025 836.556 929.53 835.74 916.735 816.898 907.578 795.829 902.53 773.62L901.71 773.49C877.83 819.28 852 891 847.92 938.49 845.35 968.61 853.79 995.63 869.3 1010.35 869.469 1010.53 869.747 1010.53 869.922 1010.36 869.953 1010.33 869.979 1010.3 870 1010.26 907.49 944.14 983.34 831.53 1037.35 777.44 1078.52 735.189 1124.47 697.875 1174.27 666.25 1181.28 661.828 1188.91 658.459 1196.9 656.25 1197.94 655.891 1199.08 656.446 1199.44 657.49 1199.75 658.379 1199.39 659.362 1198.59 659.85 1157.64 688.346 1119.31 720.432 1084.05 755.73 1021.73 818.11 934.73 938.26 892.83 1018 890.64 1022.2 888.43 1026.19 886 1030.18Z" fill="#E34133"/></g></g></g></g></svg>