<?xml version="1.0" encoding="UTF-8" standalone="no"?>
<!DOCTYPE svg PUBLIC "-//W3C//DTD SVG 1.1//EN" "http://www.w3.org/Graphics/SVG/1.1/DTD/svg11.dtd">
<!-- Created with Vectornator (http://vectornator.io/) -->
<svg height="100%" stroke-miterlimit="10" style="fill-rule:nonzero;clip-rule:evenodd;stroke-linecap:round;stroke-linejoin:round;" version="1.1" viewBox="0 0 1750 350" width="100%" xml:space="preserve" xmlns="http://www.w3.org/2000/svg" xmlns:vectornator="http://vectornator.io" xmlns:xlink="http://www.w3.org/1999/xlink">
<defs/>
<g id="Layer-1" vectornator:layerName="Layer 1">
<g opacity="1" vectornator:layerName="Group 3">
<g opacity="1" vectornator:layerName="Group 1">
<path d="M588.491 153.504C588.491 179.378 582.591 200.413 570.79 216.612C559.063 232.737 543.781 240.799 524.944 240.799C508.233 240.799 493.904 234.606 481.956 222.219C466.931 206.533 459.418 183.006 459.418 151.635C459.418 121.584 467.261 98.606 482.946 82.7008C494.6 70.9003 508.416 65 524.394 65C543.964 65 559.54 72.9892 571.12 88.9676C582.701 104.946 588.491 126.458 588.491 153.504ZM540.886 153.834C540.886 123.123 535.462 107.768 524.614 107.768C519.191 107.768 514.866 111.799 511.641 119.862C508.489 127.338 506.914 138.332 506.914 152.845C506.914 167.137 508.398 178.223 511.366 186.102C514.335 193.982 518.458 197.921 523.735 197.921C529.159 197.921 533.337 194.037 536.268 186.267C539.347 178.498 540.886 167.687 540.886 153.834Z" fill="#ffdf87" fill-rule="nonzero" opacity="1" stroke="none"/>
<path d="M608.061 124.039L629.06 124.039L629.06 137.123C635.071 127.155 642.84 122.17 652.368 122.17C661.604 122.17 668.2 125.799 672.158 133.055C674.357 137.159 675.456 145.112 675.456 156.912L675.456 237.831L654.457 237.831L654.347 161.75C654.347 154.054 653.431 148.593 651.599 145.368C649.766 142.143 646.615 140.531 642.144 140.531C639.725 140.531 637.691 140.952 636.042 141.795C634.393 142.638 633.055 143.994 632.029 145.863C631.003 147.732 630.251 150.169 629.775 153.174C629.299 156.18 629.06 159.881 629.06 164.279L629.06 237.831L608.061 237.831L608.061 124.039Z" fill="#ffdf87" fill-rule="nonzero" opacity="1" stroke="none"/>
<path d="M743.181 199.46L762.751 199.46C761.212 226.213 750.218 239.59 729.768 239.59C723.685 239.59 718.462 238.454 714.101 236.181C709.74 233.909 706.13 230.391 703.272 225.627C700.413 220.863 698.306 214.816 696.95 207.486C695.594 200.157 694.916 191.435 694.916 181.32C694.916 161.237 697.72 146.358 703.327 136.683C708.934 127.008 717.601 122.17 729.328 122.17C752.123 122.17 763.521 142.253 763.521 182.419L763.521 185.058L715.476 185.058C715.476 209.392 720.313 221.559 729.988 221.559C738.784 221.559 743.181 214.193 743.181 199.46ZM742.082 169.886C741.202 157.939 739.846 150.096 738.014 146.358C736.108 142.18 733.03 140.091 728.779 140.091C724.454 140.091 721.376 142.18 719.544 146.358C717.711 150.096 716.355 157.939 715.476 169.886L742.082 169.886Z" fill="#ffdf87" fill-rule="nonzero" opacity="1" stroke="none"/>
</g>
<g opacity="1" vectornator:layerName="Group 2">
<path d="M849.48 234.078L849.48 180.621C858.518 192.966 868.291 199.138 878.798 199.138C882.766 199.138 885.999 198.091 888.498 195.997C890.996 193.903 892.245 191.276 892.245 188.116C892.245 183.56 889.526 179.115 884.089 174.78L876.594 168.938C871.597 165.19 867.335 161.461 863.808 157.751C860.281 154.04 857.416 150.219 855.211 146.288C853.007 142.356 851.39 138.297 850.361 134.108C849.333 129.92 848.818 125.511 848.818 120.882C848.818 112.946 850.655 104.643 854.329 95.9719C856.166 91.9305 858.297 88.2381 860.722 84.8948C863.147 81.5514 865.939 78.5939 869.099 76.022C877.77 68.674 888.241 65 900.512 65C911.46 65 922.482 67.9025 933.578 73.7074L933.578 125.731C929.83 119.927 925.569 115.352 920.792 112.009C916.016 108.666 911.313 106.994 906.684 106.994C903.157 106.994 900.255 108.023 897.977 110.08C895.625 112.064 894.45 114.452 894.45 117.244C894.45 121.8 897.573 126.319 903.818 130.802L911.093 136.202C920.792 143.183 927.736 150.347 931.925 157.695C936.186 165.043 938.317 173.641 938.317 183.487C938.317 200.24 933.211 214.055 922.997 224.93C912.783 235.805 899.85 241.242 884.199 241.242C873.398 241.242 861.824 238.854 849.48 234.078Z" fill="#87a2ff" fill-rule="nonzero" opacity="1" stroke="none"/>
<path d="M1016.57 199.359L1016.57 240.03C1013.93 240.324 1011.61 240.526 1009.63 240.636C1007.65 240.746 1005.99 240.802 1004.67 240.802C991.444 240.802 980.385 236.834 971.494 228.898C965.468 223.534 960.582 216.186 956.834 206.854C953.087 197.522 951.213 187.933 951.213 178.086C951.213 160.598 956.577 145.939 967.305 134.108C977.96 122.425 991.407 116.583 1007.65 116.583C1008.6 116.583 1009.81 116.62 1011.28 116.693C1012.75 116.767 1014.52 116.877 1016.57 117.024L1016.57 155.822C1003.49 156.703 996.955 163.831 996.955 177.204C996.955 183.23 998.571 188.52 1001.8 193.076C1005.11 197.411 1009.04 199.579 1013.6 199.579C1014.04 199.579 1014.5 199.561 1014.98 199.524C1015.45 199.487 1015.99 199.432 1016.57 199.359Z" fill="#87a2ff" fill-rule="nonzero" opacity="1" stroke="none"/>
<path d="M1076.09 238.267L1031.89 238.267L1031.89 119.118L1076.09 119.118L1073.78 142.375C1080.47 124.96 1091.52 116.253 1106.95 116.253L1106.95 165.852C1102.1 163.206 1097.99 161.884 1094.61 161.884C1088.66 161.884 1084.08 164.033 1080.89 168.332C1077.69 172.63 1076.09 178.894 1076.09 187.124L1076.09 238.267Z" fill="#87a2ff" fill-rule="nonzero" opacity="1" stroke="none"/>
<path d="M1121.39 124.188L1142.56 124.188L1142.56 238.267L1121.39 238.267L1121.39 124.188ZM1131.31 75.6914C1135.13 75.6914 1138.44 77.0875 1141.23 79.8798C1144.03 82.672 1145.42 86.0154 1145.42 89.9098C1145.42 93.8778 1144.03 97.2578 1141.23 100.05C1138.44 102.842 1135.06 104.238 1131.09 104.238C1127.13 104.238 1123.74 102.842 1120.95 100.05C1118.23 97.3313 1116.87 93.9145 1116.87 89.7996C1116.87 85.9786 1118.27 82.672 1121.06 79.8798C1124.08 77.0875 1127.49 75.6914 1131.31 75.6914Z" fill="#87a2ff" fill-rule="nonzero" opacity="1" stroke="none"/>
<path d="M1166.25 285L1166.25 124.188L1187.31 124.188L1187.31 138.958C1190.24 132.712 1193.26 128.377 1196.34 125.952C1199.43 123.527 1203.47 122.315 1208.47 122.315C1217.87 122.315 1224.76 127.183 1229.13 136.919C1233.51 146.655 1235.69 161.884 1235.69 182.605C1235.69 202.886 1233.45 217.472 1228.97 226.363C1224.56 235.474 1217.47 240.03 1207.7 240.03C1202.99 240.03 1199.14 238.965 1196.12 236.834C1194.65 235.805 1193.18 234.335 1191.71 232.425C1190.24 230.514 1188.77 228.2 1187.31 225.481L1187.31 285L1166.25 285ZM1213.87 181.834C1213.87 166.329 1212.84 155.822 1210.78 150.311C1208.8 144.359 1205.23 141.383 1200.09 141.383C1195.24 141.383 1191.79 144.469 1189.73 150.641C1187.67 156.373 1186.64 166.587 1186.64 181.283C1186.64 195.979 1187.67 206.192 1189.73 211.924C1191.86 218.023 1195.31 221.072 1200.09 221.072C1205.09 221.072 1208.65 218.133 1210.78 212.255C1212.84 206.817 1213.87 196.677 1213.87 181.834Z" fill="#87a2ff" fill-rule="nonzero" opacity="1" stroke="none"/>
<path d="M1258.07 92.2244L1279.12 92.2244L1279.12 124.188L1290.58 124.188L1290.58 140.942L1279.12 140.942L1279.12 238.267L1258.07 238.267L1258.07 140.942L1246.49 140.942L1246.49 124.188L1258.07 124.188L1258.07 92.2244Z" fill="#87a2ff" fill-rule="nonzero" opacity="1" stroke="none"/>
</g>
</g>
</g>
</svg>
